<svg width="15" height="15" viewBox="0 0 15 15" fill="none" xmlns="http://www.w3.org/2000/svg">
<path d="M12.6092 4.09452C12.5084 3.91988 12.364 3.77434 12.1902 3.67211C12.0164 3.56987 11.8191 3.51443 11.6175 3.51118H4.15083L3.8125 2.19285C3.77831 2.06559 3.70205 1.95365 3.59613 1.87527C3.4902 1.79689 3.36086 1.75667 3.22916 1.76119H2.0625C1.90779 1.76119 1.75942 1.82264 1.65002 1.93204C1.54062 2.04144 1.47917 2.18981 1.47917 2.34452C1.47917 2.49923 1.54062 2.6476 1.65002 2.757C1.75942 2.86639 1.90779 2.92785 2.0625 2.92785H2.78583L4.39583 8.91284C4.43001 9.0401 4.50628 9.15204 4.6122 9.23042C4.71812 9.30881 4.84747 9.34902 4.97916 9.34451H10.2292C10.3369 9.34418 10.4424 9.31403 10.534 9.2574C10.6257 9.20077 10.6998 9.11987 10.7483 9.02367L12.6617 5.19701C12.7446 5.02319 12.7832 4.83154 12.774 4.63916C12.7649 4.44679 12.7082 4.25967 12.6092 4.09452Z" fill="white"/>
<path d="M4.6875 12.2612C5.17075 12.2612 5.5625 11.8694 5.5625 11.3862C5.5625 10.9029 5.17075 10.5112 4.6875 10.5112C4.20425 10.5112 3.8125 10.9029 3.8125 11.3862C3.8125 11.8694 4.20425 12.2612 4.6875 12.2612Z" fill="white"/>
<path d="M10.5208 12.2612C11.0041 12.2612 11.3958 11.8694 11.3958 11.3862C11.3958 10.9029 11.0041 10.5112 10.5208 10.5112C10.0376 10.5112 9.64583 10.9029 9.64583 11.3862C9.64583 11.8694 10.0376 12.2612 10.5208 12.2612Z" fill="white"/>
</svg>
